<?xml version="1.0" encoding="iso-8859-1"?>
<!-- Generator: Adobe Illustrator 19.0.0, SVG Export Plug-In . SVG Version: 6.00 Build 0)  -->
<svg version="1.1" id="Layer_1" xmlns="http://www.w3.org/2000/svg" xmlns:xlink="http://www.w3.org/1999/xlink" x="0px" y="0px"
	 viewBox="0 0 512 512" style="enable-background:new 0 0 512 512;" xml:space="preserve">
<path style="fill:#CFF09E;" d="M256,204.361L256,204.361c-18.59,0-33.661,15.07-33.661,33.66v26.43h-26.43
	c-18.59,0-33.66,15.07-33.66,33.66l0,0c0,18.59,15.07,33.66,33.66,33.66h26.43v26.43c0,18.59,15.07,33.66,33.66,33.66l0,0
	c18.59,0,33.66-15.07,33.66-33.66v-26.43h26.43c18.59,0,33.66-15.07,33.66-33.66l0,0c0-18.59-15.07-33.66-33.66-33.66h-26.43v-26.43
	C289.66,219.431,274.59,204.361,256,204.361z"/>
<g>
	<path style="fill:#507C5C;" d="M256,406.21c-26.472,0-48.007-21.536-48.007-48.007V346.12h-12.083
		c-26.472,0-48.007-21.537-48.007-48.007s21.537-48.007,48.007-48.007h12.083v-12.083c0-26.472,21.537-48.007,48.007-48.007
		c26.472,0,48.008,21.537,48.008,48.007v12.083h12.083c26.47,0,48.007,21.537,48.007,48.007c0,26.471-21.537,48.007-48.007,48.007
		h-12.083v12.083C304.008,384.675,282.472,406.21,256,406.21z M195.909,278.798c-10.65,0-19.313,8.664-19.313,19.313
		s8.664,19.313,19.313,19.313h26.43c7.924,0,14.347,6.423,14.347,14.347v26.43c0,10.65,8.664,19.313,19.313,19.313
		s19.314-8.664,19.314-19.313v-26.43c0-7.924,6.425-14.347,14.347-14.347h26.43c10.65,0,19.313-8.664,19.313-19.313
		s-8.663-19.313-19.313-19.313h-26.43c-7.923,0-14.347-6.423-14.347-14.347v-26.43c0-10.65-8.664-19.313-19.314-19.313
		c-10.65,0-19.313,8.664-19.313,19.313v26.43c0,7.924-6.423,14.347-14.347,14.347L195.909,278.798L195.909,278.798z"/>
	<path style="fill:#507C5C;" d="M256,512c-50.98,0-98.059-19.151-132.565-53.922C88.062,422.431,68.58,372.557,68.58,317.64
		c0-124.13,129.687-268.629,169.433-309.959c4.743-4.933,11.12-7.66,17.958-7.681c0.027,0,0.055,0,0.082,0
		c6.806,0,13.168,2.686,17.922,7.567c6.673,6.854,17.285,18.056,29.954,32.506c5.224,5.958,4.628,15.023-1.331,20.247
		c-5.956,5.224-15.023,4.628-20.245-1.33c-10.693-12.198-19.851-21.981-26.285-28.667C224.008,64.079,97.274,204.708,97.274,317.64
		c0,95.993,66.753,165.665,158.726,165.665s158.725-69.673,158.725-165.665c0-70.657-48.109-150.166-88.466-204.424
		c-4.73-6.359-3.409-15.346,2.95-20.075c6.356-4.729,15.344-3.409,20.073,2.95c62.465,83.98,94.137,158.52,94.137,221.55
		c0,54.915-19.481,104.79-54.855,140.437C354.057,492.851,306.978,512,256,512z"/>
</g>
<g>
</g>
<g>
</g>
<g>
</g>
<g>
</g>
<g>
</g>
<g>
</g>
<g>
</g>
<g>
</g>
<g>
</g>
<g>
</g>
<g>
</g>
<g>
</g>
<g>
</g>
<g>
</g>
<g>
</g>
</svg>
